<svg width="21" height="22" viewBox="0 0 21 22" fill="none" xmlns="http://www.w3.org/2000/svg">
<path d="M19.009 6.97189C20.3061 8.6016 21.0064 10.601 21 12.6564C20.9867 15.1127 19.9775 17.4662 18.1888 19.2125C16.4 20.9589 13.974 21.9591 11.4307 21.9988C8.8874 22.0385 6.42917 21.1145 4.5829 19.4249C2.73663 17.7353 1.64923 15.4145 1.55375 12.96H0.603681C0.490133 12.9623 0.378311 12.9329 0.281575 12.8754C0.184839 12.818 0.107281 12.7348 0.0581664 12.636C0.0090521 12.5371 -0.00954098 12.4266 0.00460874 12.3178C0.0187585 12.209 0.0650526 12.1064 0.13796 12.0223L2.28726 9.53083C2.34823 9.46005 2.42459 9.40309 2.51091 9.364C2.59723 9.32491 2.69141 9.30464 2.78675 9.30464C2.88209 9.30464 2.97627 9.32491 3.06259 9.364C3.14891 9.40309 3.22527 9.46005 3.28624 9.53083L5.43554 12.0223C5.50845 12.1064 5.55474 12.209 5.56889 12.3178C5.58304 12.4266 5.56445 12.5371 5.51534 12.636C5.46622 12.7348 5.38866 12.818 5.29193 12.8754C5.19519 12.9329 5.08337 12.9623 4.96982 12.96H4.03838C4.11272 14.6134 4.79385 16.1874 5.9599 17.4003C7.12595 18.6132 8.70085 19.3859 10.4029 19.5802C12.1049 19.7744 13.8229 19.3776 15.2497 18.4607C16.6765 17.5438 17.7188 16.1666 18.1904 14.5754C18.6619 12.9843 18.5318 11.2831 17.8233 9.77611C17.1149 8.26913 15.8743 7.05472 14.3235 6.35013C12.7728 5.64554 11.013 5.49674 9.35897 5.93034C7.70499 6.36395 6.26472 7.35168 5.29583 8.71682C5.28065 8.73813 5.26054 8.75572 5.2371 8.76821C5.21366 8.7807 5.18752 8.78774 5.16077 8.78878C5.13426 8.78942 5.10794 8.78429 5.08375 8.77378C5.05957 8.76327 5.03814 8.74765 5.02105 8.72807L3.59594 7.07757C3.57118 7.04797 3.55767 7.01106 3.55767 6.97301C3.55767 6.93496 3.57118 6.89805 3.59594 6.86845C5.17595 4.92447 7.48115 3.65487 10.0182 3.33135V2.4319H9.05886C8.89357 2.4319 8.72991 2.40046 8.57721 2.33938C8.4245 2.2783 8.28576 2.18878 8.16888 2.07592C8.05201 1.96306 7.9593 1.82908 7.89605 1.68162C7.8328 1.53416 7.80024 1.37612 7.80024 1.21651C7.80024 1.0569 7.8328 0.89886 7.89605 0.751402C7.9593 0.603945 8.05201 0.469962 8.16888 0.357103C8.28576 0.244244 8.4245 0.154719 8.57721 0.0936401C8.72991 0.0325612 8.89357 0.00112437 9.05886 0.00112437H13.4832C13.6524 -0.00591893 13.8214 0.0201841 13.9799 0.0778613C14.1384 0.135539 14.2831 0.223597 14.4054 0.336732C14.5278 0.449867 14.6251 0.585739 14.6916 0.736164C14.7581 0.886589 14.7924 1.04846 14.7924 1.21201C14.7924 1.37557 14.7581 1.53744 14.6916 1.68786C14.6251 1.83829 14.5278 1.97416 14.4054 2.08729C14.2831 2.20043 14.1384 2.28849 13.9799 2.34616C13.8214 2.40384 13.6524 2.42994 13.4832 2.4229H12.5262V3.32235C14.2473 3.53806 15.8768 4.19666 17.2439 5.2292L18.3151 4.19482C18.4296 4.07407 18.5682 3.97697 18.7226 3.90938C18.8771 3.84179 19.0441 3.80512 19.2136 3.80157C19.3831 3.79802 19.5516 3.82767 19.7089 3.88872C19.8662 3.94978 20.0091 4.04099 20.1289 4.15683C20.2487 4.27268 20.3429 4.41076 20.406 4.56275C20.469 4.71474 20.4995 4.87749 20.4956 5.04117C20.4917 5.20485 20.4535 5.36607 20.3833 5.5151C20.3131 5.66413 20.2123 5.79788 20.0871 5.90828L19.009 6.97189ZM16.2333 12.6429C16.2333 11.3816 15.7144 10.1719 14.7908 9.28004C13.8672 8.38814 12.6145 7.88708 11.3083 7.88708V12.6429L6.69765 14.3182C7.09781 15.3691 7.86911 16.2499 8.87573 16.8056C9.88235 17.3613 11.0597 17.5563 12.2006 17.3561C13.3414 17.1559 14.3725 16.5735 15.1123 15.7113C15.8521 14.8492 16.2532 13.7626 16.2449 12.6429H16.2333Z" fill="#63B4FC"/>
</svg>
